HIERARCHY
ROOT Hips
{
	OFFSET 0.000000 0.000000 0.000000 
	CHANNELS 6 Xposition Yposition Zposition Zrotation Xrotation Yrotation
	JOINT Spine
	{
		OFFSET -0.015549 8.493394 0.036570 
		CHANNELS 3 Zrotation Xrotation Yrotation
		JOINT Spine1
		{
			OFFSET -0.000602 19.464224 0.099956 
			CHANNELS 3 Zrotation Xrotation Yrotation
			JOINT Neck
			{
				OFFSET 0.017239 22.921419 0.097654 
				CHANNELS 3 Zrotation Xrotation Yrotation
				JOINT Head
				{
					OFFSET 0.029705 15.670371 1.984096 
					CHANNELS 3 Zrotation Xrotation Yrotation
					End Site
					{
						OFFSET -0.000000 19.661171 0.000000 
					}
				}
			}
			JOINT LeftShoulder
			{
				OFFSET 3.911932 16.465139 -0.300542 
				CHANNELS 3 Zrotation Xrotation Yrotation
				JOINT LeftArm
				{
					OFFSET 19.748520 0.432372 0.012204 
					CHANNELS 3 Zrotation Xrotation Yrotation
					JOINT LeftForeArm
					{
						OFFSET 25.174046 0.159711 0.091826 
						CHANNELS 3 Zrotation Xrotation Yrotation
						JOINT LeftHand
						{
							OFFSET 27.310062 0.079367 0.141115 
							CHANNELS 3 Zrotation Xrotation Yrotation
							End Site
							{
								OFFSET 14.745877 0.000000 0.000000 
							}
						}
					}
				}
			}
			JOINT RightShoulder
			{
				OFFSET -3.913523 16.464996 -0.300551 
				CHANNELS 3 Zrotation Xrotation Yrotation
				JOINT RightArm
				{
					OFFSET -19.750706 0.431442 0.025545 
					CHANNELS 3 Zrotation Xrotation Yrotation
					JOINT RightForeArm
					{
						OFFSET -25.176556 0.184172 0.045601 
						CHANNELS 3 Zrotation Xrotation Yrotation
						JOINT RightHand
						{
							OFFSET -26.617605 0.132531 0.113586 
							CHANNELS 3 Zrotation Xrotation Yrotation
							End Site
							{
								OFFSET -14.745877 0.000000 0.000000 
							}
						}
					}
				}
			}
		}
	}
	JOINT LeftUpLeg
	{
		OFFSET 9.815043 0.432318 0.036562 
		CHANNELS 3 Zrotation Xrotation Yrotation
		JOINT LeftLeg
		{
			OFFSET 0.022519 -46.041405 0.007056 
			CHANNELS 3 Zrotation Xrotation Yrotation
			JOINT LeftFoot
			{
				OFFSET 0.040150 -29.861650 0.053177 
				CHANNELS 3 Zrotation Xrotation Yrotation
				JOINT LeftToeBase
				{
					OFFSET 0.038633 -5.958652 14.778426 
					CHANNELS 3 Zrotation Xrotation Yrotation
					End Site
					{
						OFFSET -0.000000 0.000000 3.932234 
					}
				}
			}
		}
	}
	JOINT RightUpLeg
	{
		OFFSET -9.846143 0.432402 0.036572 
		CHANNELS 3 Zrotation Xrotation Yrotation
		JOINT RightLeg
		{
			OFFSET -0.069749 -46.047760 0.036518 
			CHANNELS 3 Zrotation Xrotation Yrotation
			JOINT RightFoot
			{
				OFFSET -0.000450 -29.856411 -0.006277 
				CHANNELS 3 Zrotation Xrotation Yrotation
				JOINT RightToeBase
				{
					OFFSET -0.000451 -5.955752 14.739580 
					CHANNELS 3 Zrotation Xrotation Yrotation
					End Site
					{
						OFFSET -0.000000 0.000000 3.932234 
					}
				}
			}
		}
	}
}
MOTION
Frames: 14
Frame Time: 0.010000
17.395439 80.143723 4.435426 3.909847 4.870074 0.279454 3.727897 -5.032794 1.521503 -2.062079 -0.747239 0.452411 1.382024 11.088705 5.319761 -1.979075 17.936926 6.340506 2.192828 12.240939 3.995151 -72.399689 21.394562 -21.578434 -8.041856 0.468566 -6.250316 7.278087 0.397293 7.680566 -8.954668 10.514803 -11.263053 58.863422 48.650047 29.301245 5.145328 -11.661036 6.558890 -6.584637 -11.917418 -2.079448 19.062130 -7.223631 5.599718 7.442540 -5.689858 -4.748600 -21.737160 20.210152 12.399861 0.000000 0.000000 0.000000 -23.322285 -7.944095 6.523338 21.486145 18.944649 -0.432367 0.000000 0.000000 0.000000 0.000000 0.000000 0.000000 
18.288462 80.048203 4.621192 3.823955 4.925387 0.038260 3.732802 -5.018903 1.577676 -2.077132 -0.769074 0.470797 1.409297 11.028170 5.304375 -1.986899 17.815571 6.330380 2.206074 12.227162 4.013351 -72.385864 21.361177 -21.553562 -8.065156 0.458042 -6.264473 7.235887 0.385308 7.747701 -8.949375 10.576437 -11.282671 58.938663 48.446789 29.109209 5.103621 -11.672550 6.606592 -6.598916 -11.931293 -2.025841 19.098572 -7.158043 5.567883 7.368658 -5.531038 -5.187112 -22.037041 19.842691 12.558132 0.000000 0.000000 0.000000 -23.742289 -7.992841 6.599332 21.834146 18.762362 -0.632086 0.000000 0.000000 0.000000 0.000000 0.000000 0.000000 
19.197588 79.959114 4.805131 3.732117 4.984791 -0.200771 3.735556 -5.005979 1.631621 -2.086401 -0.789073 0.488550 1.439900 10.965685 5.284456 -1.994762 17.686008 6.316167 2.220220 12.212317 4.028290 -72.373764 21.338531 -21.532423 -8.093775 0.445745 -6.279290 7.190843 0.372429 7.812377 -8.941994 10.638252 -11.302858 59.012390 48.233189 28.914743 5.059933 -11.683783 6.656446 -6.613879 -11.944889 -1.971108 19.093901 -7.157426 5.536230 7.382239 -5.137097 -5.633591 -22.316042 19.199379 12.566978 0.000000 0.000000 0.000000 -24.155867 -8.044296 6.679460 22.171236 18.557175 -0.872750 0.000000 0.000000 0.000000 0.000000 0.000000 0.000000 
20.121990 79.877350 4.986567 3.634687 5.048396 -0.436987 3.735866 -4.993749 1.682828 -2.089493 -0.807370 0.505494 1.473699 10.901834 5.260063 -2.002836 17.547710 6.297904 2.235148 12.196435 4.039629 -72.363388 21.327488 -21.515465 -8.127163 0.433538 -6.294361 7.143690 0.356608 7.873713 -8.932491 10.699884 -11.323452 59.083935 48.009605 28.718765 5.014155 -11.694937 6.708004 -6.629411 -11.958375 -1.915469 19.053284 -7.204305 5.507434 7.561768 -4.512349 -6.199835 -22.757269 18.194393 12.459821 0.000000 0.000000 0.000000 -24.561462 -8.099380 6.763059 22.494274 18.331110 -1.154804 0.000000 0.000000 0.000000 0.000000 0.000000 0.000000 
21.060713 79.803757 5.164804 3.531835 5.116410 -0.669732 3.733661 -4.982065 1.730901 -2.086125 -0.823940 0.521361 1.510674 10.836699 5.231208 -2.011261 17.400684 6.275666 2.250797 12.179293 4.047044 -72.354576 21.328306 -21.502596 -8.165938 0.419455 -6.309926 7.095696 0.340155 7.930389 -8.920651 10.760859 -11.344328 59.152859 47.776241 28.522146 4.966164 -11.706080 6.760763 -6.645350 -11.971790 -1.859108 18.996012 -7.246218 5.485533 7.556976 -3.891895 -6.348284 -22.707941 17.296228 12.015102 0.000000 0.000000 0.000000 -24.957233 -8.159183 6.849604 22.800184 18.086588 -1.478472 0.000000 0.000000 0.000000 0.000000 0.000000 0.000000 
22.012709 79.739151 5.339143 3.423863 5.189084 -0.898483 3.728976 -4.970761 1.775348 -2.076246 -0.839003 0.536135 1.550694 10.770769 5.198012 -2.020077 17.244429 6.249505 2.267205 12.160977 4.050246 -72.347092 21.341175 -21.493999 -8.210275 0.405018 -6.326128 7.047974 0.321896 7.981442 -8.906473 10.820803 -11.365288 59.218723 47.533680 28.325890 4.915797 -11.717455 6.814084 -6.661348 -11.985304 -1.802156 18.903191 -7.324928 5.467847 7.492761 -3.058897 -6.069606 -22.283497 16.222860 11.116694 0.000000 0.000000 0.000000 -25.341280 -8.224965 6.938089 23.085558 17.826567 -1.843319 0.000000 0.000000 0.000000 0.000000 0.000000 0.000000 
22.976805 79.684326 5.508943 3.311006 5.266428 -1.122733 3.721666 -4.959535 1.815783 -2.059531 -0.852649 0.549639 1.593707 10.704355 5.160555 -2.029621 17.078827 6.219620 2.284125 12.141450 4.048997 -72.340698 21.366825 -21.490051 -8.259824 0.389732 -6.342364 7.001862 0.301901 8.025346 -8.889820 10.879280 -11.386098 59.281261 47.281990 28.130671 4.863278 -11.728998 6.867612 -6.677487 -11.998840 -1.744975 18.784552 -7.397940 5.456432 7.161985 -2.218413 -5.118876 -21.183035 15.280707 9.766133 0.000000 0.000000 0.000000 -25.711647 -8.297730 7.028028 23.347408 17.553991 -2.248623 0.000000 0.000000 0.000000 0.000000 0.000000 0.000000 
23.951727 79.640030 5.673555 3.193428 5.348647 -1.342103 3.711824 -4.948199 1.851880 -2.035940 -0.865098 0.561857 1.639625 10.637825 5.118977 -2.039842 16.903446 6.186092 2.301884 12.120811 4.043176 -72.335358 21.405056 -21.490685 -8.314931 0.373805 -6.359300 6.958890 0.280698 8.061197 -8.870916 10.936046 -11.406590 59.340305 47.022160 27.937798 4.808312 -11.741063 6.920506 -6.693352 -12.012697 -1.687654 18.616354 -7.561349 5.447341 7.161813 -0.993170 -4.510958 -20.578554 13.751127 8.433394 0.000000 0.000000 0.000000 -26.066206 -8.378793 7.118279 23.582588 17.272463 -2.692896 0.000000 0.000000 0.000000 0.000000 0.000000 0.000000 
24.936094 79.606903 5.832394 3.071394 5.435760 -1.556303 3.699457 -4.936493 1.883485 -2.005340 -0.876563 0.572652 1.688191 10.571532 5.073493 -2.050733 16.718178 6.149079 2.320158 12.099056 4.032500 -72.330635 21.455879 -21.495756 -8.375442 0.357317 -6.376900 6.920600 0.258281 8.087705 -8.849549 10.990729 -11.426535 59.395699 46.754494 27.747932 4.751034 -11.753622 6.972274 -6.708827 -12.026817 -1.630540 18.448212 -7.700511 5.449133 7.127316 0.038394 -4.174078 -20.100668 12.387039 7.408329 0.000000 0.000000 0.000000 -26.402853 -8.469266 7.207654 23.787991 16.985683 -3.174165 0.000000 0.000000 0.000000 0.000000 0.000000 0.000000 
25.928446 79.585556 5.984902 2.945063 5.527894 -1.765128 3.684687 -4.924271 1.910545 -1.967773 -0.887217 0.581886 1.739339 10.505708 5.024276 -2.062393 16.522833 6.108753 2.339198 12.076379 4.017066 -72.326309 21.519278 -21.505455 -8.441327 0.340612 -6.395435 6.888868 0.234600 8.103883 -8.825873 11.043038 -11.445753 59.447521 46.479942 27.562130 4.691358 -11.766863 7.022182 -6.723645 -12.041303 -1.573810 18.270714 -7.818757 5.460086 7.004370 0.922513 -3.842707 -19.531759 11.180040 6.482759 0.000000 0.000000 0.000000 -26.719437 -8.570381 7.295016 23.960970 16.697424 -3.690051 0.000000 0.000000 0.000000 0.000000 0.000000 0.000000 
26.927225 79.576462 6.130609 2.814627 5.624968 -1.968479 3.667555 -4.911222 1.932812 -1.923178 -0.897382 0.589710 1.792778 10.440757 4.971611 -2.074575 16.317171 6.065287 2.358829 12.052929 3.996776 -72.322021 21.594917 -21.519571 -8.512483 0.323223 -6.415080 6.865687 0.210352 8.108567 -8.799892 11.092690 -11.464005 59.495918 46.199265 27.381105 4.629340 -11.780812 7.069674 -6.737619 -12.056198 -1.517738 18.107189 -7.866023 5.483930 6.727113 1.415584 -3.685652 -18.900391 10.363745 5.881361 0.000000 0.000000 0.000000 -27.013857 -8.683110 7.379268 24.099058 16.411627 -4.237620 0.000000 0.000000 0.000000 0.000000 0.000000 0.000000 
27.930792 79.580017 6.269073 2.680167 5.727074 -2.166341 3.648224 -4.897319 1.950472 -1.871600 -0.907157 0.595983 1.848407 10.376778 4.915729 -2.087323 16.101124 6.018876 2.379263 12.028890 3.971788 -72.317566 21.682383 -21.538021 -8.588622 0.305891 -6.436317 6.853011 0.185228 8.101115 -8.771790 11.139512 -11.481168 59.541008 45.913513 27.205963 4.565029 -11.795647 7.114086 -6.750522 -12.071613 -1.462523 17.896988 -7.984818 5.509584 6.709876 2.180729 -3.747833 -18.588964 9.195618 5.259370 0.000000 0.000000 0.000000 -27.283817 -8.808619 7.458702 24.199724 16.132431 -4.813578 0.000000 0.000000 0.000000 0.000000 0.000000 0.000000 
28.937471 79.596504 6.399978 2.541937 5.833943 -2.358835 3.626682 -4.882204 1.963447 -1.813067 -0.916902 0.600874 1.906029 10.314190 4.856922 -2.100522 15.874618 5.969769 2.400356 12.004456 3.942129 -72.312546 21.781265 -21.560465 -8.669493 0.288190 -6.459353 6.853062 0.159648 8.080569 -8.741433 11.183421 -11.496964 59.582859 45.623657 27.037458 4.498445 -11.811413 7.154832 -6.762141 -12.087560 -1.408380 17.677961 -8.063642 5.542781 6.533788 2.724663 -3.660034 -18.022039 8.289664 4.672964 0.000000 0.000000 0.000000 -27.527597 -8.947541 7.532151 24.261530 15.863425 -5.413797 0.000000 0.000000 0.000000 0.000000 0.000000 0.000000 
29.945513 79.626083 6.523027 2.399986 5.945613 -2.546091 3.603168 -4.865949 1.972018 -1.747689 -0.926699 0.604295 1.965275 10.252973 4.795549 -2.113907 15.637661 5.918169 2.422234 11.979888 3.908104 -72.306702 21.890766 -21.586651 -8.754973 0.270548 -6.484830 6.868241 0.133702 8.046652 -8.709347 11.224186 -11.511333 59.622250 45.330788 26.876249 4.429731 -11.828024 7.191529 -6.772266 -12.103960 -1.355574 17.453356 -8.104308 5.583107 6.223769 3.055737 -3.485173 -17.256491 7.618169 4.155763 0.000000 0.000000 0.000000 -27.743052 -9.100774 7.598242 24.282690 15.608339 -6.034606 0.000000 0.000000 0.000000 0.000000 0.000000 0.000000 
